# Blender 3.5.1
# www.blender.org
o Plane
v 0.000000 0.000000 0.000000
v 0.500000 -0.500000 0.499995
v -0.500000 -0.500000 0.500000
v -0.500000 -0.500000 -0.500000
v 0.500000 -0.500000 -0.499995
vn -0.0000 0.7071 -0.7071
vn -0.7071 0.7071 -0.0000
vn -0.0000 0.7071 0.7071
vn 0.7071 0.7071 -0.0000
vn -0.0000 -1.0000 -0.0000
vt 0.818182 0.472382
vt 0.090910 0.472382
vt 0.636364 0.472382
vt 0.136365 0.393651
vt 0.045455 0.393651
vt 0.863636 0.393651
vt 0.772727 0.393651
vt 0.681818 0.393651
vt 0.590909 0.393651
s 0
f 5/9/1 4/8/1 1/3/1
f 4/7/2 3/6/2 1/1/2
f 3/5/3 2/4/3 1/2/3
f 2/4/4 5/9/4 1/3/4
f 3/6/5 5/9/5 2/4/5
f 3/6/5 4/8/5 5/9/5
